<svg xmlns="http://www.w3.org/2000/svg" version="1.0" viewBox="0 0 960 960">
  <path d="M296 28.8c-34.9 13-64.1 24.1-64.8 24.5-.9.7-1.2 85.3-1.2 414l.1 413.2 5.7 2.9c3.1 1.6 32.4 19.5 65.1 39.7l59.4 36.9h7.8c6.5 0 7.8-.3 8.1-1.7.3-1.5 19.7-3.6 182.3-19 100.1-9.4 182.3-17.2 182.8-17.2.4-.1.7-1.9.7-4.1 0-2.2.5-4 1-4 .7 0 1-146.5 1-437.4 0-415.6-.1-437.4-1.7-438.1-3.4-1.4-350.4-32.7-366.8-33.1l-16-.3L296 28.8zm259 22.8c140.6 11.3 170.7 14 171.8 15.2.9 1.3 1.2 28.2 1.2 127.4V320h-9.2c-6.5 0-338.7-7.8-341.5-8-.2 0-.3-61.9-.3-137.5V37l3.8.5c2 .2 80.4 6.6 174.2 14.1zm-195 431c0 353.7-.3 442.5-1.2 442.1-.7-.3-25.8-14.9-55.8-32.5l-54.5-32-.3-392.5-.2-392.6 6.7-2.1c3.8-1.1 28.6-8.9 55.3-17.4 26.7-8.5 48.8-15.5 49.3-15.5.4-.1.7 199.1.7 442.5zm367.5-93.4c.3 1.3.4 116.1.3 255.3l-.3 253L556 913.2c-94.3 8.6-173.2 15.7-175.2 15.7l-3.8.1V387h350l.5 2.2z"/>
</svg>
