<svg xmlns="http://www.w3.org/2000/svg" version="1.0" viewBox="0 0 640 637">
  <path d="M1 319v318h260V1H1v318zm248.8-202.8.2 94.8H12V21l118.8.2 118.7.3.3 94.7zm.2 321.3V617H12V258h238v179.5zm23 14V607h13v30h73v-30h189v30h72v-30h18V296H273v155.5zm353-.5v145H285V306h341v145zM346.8 616.7l.3 9.3H298v-8.8c0-4.9.3-9.2.7-9.6.4-.3 11.3-.5 24.2-.4l23.6.3.3 9.2zm261.2.3v10h-48v-20h48v10z"/>
  <path d="M402.4 333.5c-18.2 3.2-35.9 10.8-50.3 21.5-9.7 7.3-24.3 22.5-30.4 31.7-17.2 25.9-23.3 58.7-17.1 91.3 8.4 44.6 46.6 83.6 91.4 93.5 10.2 2.2 33.3 3.1 44.3 1.6 24.6-3.3 46.8-14 65.7-31.8 15.5-14.6 28-34.6 33.4-53.3 6.5-23 6-52-1.5-74.2-12.5-37.6-46.3-68.7-85.2-78.4-12.9-3.2-37.5-4.2-50.3-1.9zm47.1 13.4c34.4 8.5 65 36.2 76.5 69.2 9 26 7.7 58.3-3.4 82.3-12.2 26.4-36.9 49-63.7 58.1-23 7.9-53 7.3-75.8-1.5-23-8.9-45.4-29.3-57.1-52.1-15-29.2-15.8-66.2-2-95.6 14.9-31.9 45.9-55.9 79.8-61.9 10.9-1.9 35.2-1.1 45.7 1.5z"/>
  <path d="M371.4 373.9c-10.7 7.1-23.1 19.7-29 29.7-8.3 14-12.1 26.7-13.1 43.6l-.6 10.8H398v-5.8c0-9 3.5-15.3 10.9-20 3.3-2 6-4 6.1-4.4 0-.7-32.7-57.9-33.9-59.1-.4-.4-4.8 2-9.7 5.2zm16.9 30.9c10.6 18.6 11 19.3 9.1 20.7-3.1 2.1-7.6 9.1-9.5 14.8l-1.8 5.2-22.5.3c-13.5.1-22.6-.1-22.6-.7 0-.5.6-4.3 1.4-8.4 2-10.2 6.4-21.1 12-29.5 4.7-7.2 20.1-22.5 21.8-22 .6.2 6 9 12.1 19.6zm59.3-7.1-17 29.6 2.4 1.6c9.8 6.4 13.9 13.2 14 22.8v6.3h70v-8.8c-.1-22.8-11.1-47.5-28.8-64.4-4.7-4.5-21.9-16.8-23.4-16.8-.1 0-7.9 13.4-17.2 29.7zm27.1-8.9c14.1 11.2 24.6 28.1 28.8 46.2.8 3.6 1.5 7.5 1.5 8.7v2.3h-45.7l-1.2-4.3c-1.6-5.3-5.2-11.5-8.5-14.6-1.4-1.4-2.6-2.9-2.6-3.4 0-1.4 21.4-38.6 22.2-38.7.3 0 2.8 1.7 5.5 3.8z"/>
  <path d="M416 431.5c-9.8 3.1-16 11.5-16 21.8 0 13.4 9.3 22.7 22.5 22.7 6.4 0 10.6-1.5 15.3-5.5 13.4-11.2 8.7-34-7.9-38.9-6.3-1.9-8-1.9-13.9-.1zm11.6 12c7 2.9 8.1 13.5 1.7 18.4-4 3.3-10.7 2.9-14.4-.8-5.3-5.4-3.5-14.6 3.5-17.7 4-1.7 4.9-1.7 9.2.1z"/>
  <path d="M404.3 473.2c-1.7 2.1-33.3 56.6-33.5 57.8-.4 1.6 13 8.4 22.3 11.4 16.1 5.2 37.1 5.8 53.4 1.6 8.2-2.1 24.7-9.3 26.6-11.7.9-1-2.9-8.3-15.6-30.8-9.2-16.2-17-29.5-17.4-29.5-.3 0-3.3 1.4-6.5 3-8 4.1-14.3 4.1-22.1 0-6.6-3.5-6-3.3-7.2-1.8zm18.2 16.3c3.9-.1 8.5-.3 10.4-.5l3.3-.5 10.9 19c5.9 10.4 10.6 19.2 10.3 19.6-.9 1.4-12 5.1-19.4 6.5-13.6 2.4-27.8 1.6-41.2-2.6-11.4-3.5-11.5-1.9 1.4-23.8l11.3-19.3 3 .8c1.6.5 6.2.8 10 .8z"/>
</svg>
