<?xml version="1.0" standalone="no"?>
<!DOCTYPE svg PUBLIC "-//W3C//DTD SVG 20010904//EN"
 "http://www.w3.org/TR/2001/REC-SVG-20010904/DTD/svg10.dtd">
<svg version="1.0" xmlns="http://www.w3.org/2000/svg"
 width="1080.000000pt" height="1080.000000pt" viewBox="0 0 1080.000000 1080.000000"
 preserveAspectRatio="xMidYMid meet">

<g transform="translate(0.000000,1080.000000) scale(0.100000,-0.100000)"
fill="#000000" stroke="none">
<path d="M3020 5400 l0 -4570 2380 0 2380 0 0 4570 0 4570 -2380 0 -2380 0 0
-4570z m4540 0 l0 -4350 -2160 0 -2160 0 0 4350 0 4350 2160 0 2160 0 0 -4350z"/>
<path d="M4330 5400 l0 -300 1080 0 1080 0 0 300 0 300 -1080 0 -1080 0 0
-300z m1762 144 c200 -142 192 -134 175 -151 -13 -13 -32 -2 -156 87 l-142
102 -147 -85 -147 -84 -3 -142 c-2 -133 -4 -141 -23 -141 -19 0 -19 6 -17 152
l3 153 165 96 c91 53 166 97 167 98 2 1 58 -38 125 -85z"/>
</g>
</svg>
