<svg xmlns="http://www.w3.org/2000/svg" viewBox="0 0 1000 1000">
  <path d="M776.123 655.355c8.87-91.39-5.452-178.955-59.896-282.634-11.149 72.917-36.702 114.014-92.04 167.074-24.17-143.636-103.11-277.832-178.223-402.181 4.394 165.12-49.398 401.042-160.4 528.239-13.591-66.325-3.826-100.505-12.615-167.4-14.892 59.734-45.898 97.332-54.443 179.607-6.917 67.139 11.963 124.186 46.956 167.969 39.063 48.828 98.308 81.787 164.632 94.645 192.058 37.19 327.719-97.168 346.03-285.32zm-125 301.107c-38.574 25.146-75.602 37.76-113.932 41.91-37.354 4.07-75.114.082-116.537-7.893-77.8-15.056-147.786-54.362-194.58-112.875C79.102 693.93 245.28 503.011 257.08 292.318c51.351 62.662 56.56 99.284 65.837 181.559A708.025 708.025 0 0 1 325.358 500c21.24-53.711 37.19-110.352 48.259-166.26C397.787 211.67 399.089 119.954 375.08 0c89.03 53.71 135.336 124.349 186.036 216.553 31.25 56.966 61.197 116.536 87.972 190.185 19.124-75.846 23.6-100.423 3.824-181.478 232.585 146.81 251.384 565.756-1.79 731.202z"/>
</svg>
