<svg xmlns="http://www.w3.org/2000/svg" version="1.0" viewBox="0 0 251 251">
  <path d="M115.4 5c-53.5 5.4-96.7 44.8-107 97.7-2.3 11.7-2.3 32.9 0 44.6 14.9 76.3 95.7 118.9 167.3 88 26-11.3 49.8-35 61.4-61.1 25.6-58.1 2.8-125.1-53.1-155.5C164.8 8.2 137.7 2.8 115.4 5zm34.1 8.9c31.4 6.5 58.7 25.8 74.8 53 4.4 7.3 11 22.2 10.2 22.9-.7.8-141.3-72.3-140.6-73.1.5-.4 4.8-1.7 9.7-2.7 12.3-2.6 33.7-2.6 45.9-.1zm11.6 46.7 76.8 39.6.8 4.7c.4 2.5.8 12.5.8 22.1 0 13.4-.4 18.2-1.5 20.3-1.2 2.4-14.5 9.6-77.9 42.3-42 21.7-77.1 39.4-78 39.4-2.5 0-16.6-8.3-24.8-14.6-21.5-16.5-37-42.2-41.8-69.2-1.8-9.9-1.8-30.5 0-40.4 4.8-27 20.3-52.7 41.8-69.2C66 29 79.7 21 82.4 21c1.1 0 36.5 17.8 78.7 39.6zm70.9 107c-13.9 34.9-45 60.6-82.5 68.5-12.4 2.6-32.7 2.6-45.4-.1-5.2-1-9.8-2.3-10.3-2.8-.8-.8 140.2-74.5 141-73.7.2.2-1.1 3.8-2.8 8.1z"/>
</svg>
