<svg xmlns="http://www.w3.org/2000/svg" version="1.0" viewBox="0 0 1642 1642">
  <path d="M669.5 122.1c-300.2.5-330.8.7-339.2 2.2-25 4.5-46.4 12.2-68.5 24.8-11.6 6.6-23.5 21.2-33.2 40.5-9.5 19-14 39.8-15.6 70.8-.5 10.5-1.5 168.1-2.1 350.2l-1.3 331.2-29.5.6c-49.7 1-62.8 2.8-78.2 10.5-10.9 5.5-17.6 10.7-32.6 25.5L56 991.3v42.8l6.9 10.2c9.8 14.7 27.1 30.2 41.6 37.5 14.5 7.2 27.8 9.5 69.3 11.7 16.3.9 31.2 1.8 33 2.1l3.2.5v24c0 18.3-.3 24.1-1.3 24.3-.6.3-16.5.9-35.3 1.5-37.8 1.2-47.6 2.4-62.1 7.6-19.4 6.9-33.4 17.4-46.1 34.2L56 1200v49.5l15.3 15.1c15.4 15.4 19.9 18.9 29.7 23.9 10.7 5.4 12.5 5.6 82.5 8.8l26 1.2.6 29.5c.7 33.2 1.3 43.3 3.6 57 2.8 17 9.2 33.7 24.6 63.5 8.1 15.6 8.3 16 15.5 21.5 20.7 16 42.9 25.4 69.8 29.6 14.4 2.2 149 3.1 681.9 4.4 399.4.9 449.1.9 458-.5 12.7-1.9 21.7-4.4 34.3-9.4 16.5-6.6 50.6-23.1 52.5-25.4 5.8-7.1 15.6-22.1 22.9-35.3 4.7-8.3 10.8-18.5 13.6-22.7l5.2-7.6V216.9l-3.8-5.7c-2.1-3.1-8.3-12.9-13.8-21.7-8.2-13.4-11.6-17.7-20.4-26.6-5.8-5.9-14-13-18.3-15.8-17.2-11.5-41.5-21.4-56.5-23.1-29.6-3.3-38.9-3.3-809.7-1.9zm803.2 49c20.8 2.8 34.6 10.2 51.9 28.1 13.3 13.6 17.7 24.6 19.4 48.8.7 8.8.9 209.2.7 571.5l-.2 558-2.2 8.5c-2.7 10.7-4.4 15.2-8.5 23.7-7.7 15.7-20.2 30.9-28.6 35.2-8 4-20.6 7.8-30.4 9.1-12.2 1.7-1132.3 2.6-1144.5 1-20.5-2.7-31.4-8-49.5-24.3-9.6-8.6-12.9-13.7-17.4-27.1-6-17.4-5.8-14.1-5.6-132.6.1-59.7.5-123.5.8-141.8l.7-33.2H314v3.2c0 1.8.7 36.8 1.5 77.8s1.9 104.4 2.5 141c.6 36.6 1.3 67.9 1.6 69.6.2 1.7 1.9 4.5 4 6.5l3.5 3.4 569.2.1 569.2.1 7.3-3c5.3-2.1 7.6-3.6 8.3-5.3.5-1.5.9-231.7.9-574.1l.1-571.6-3.5-7.2-3.4-7.3-39.3-.4c-21.7-.2-278.3-.4-570.4-.4l-531 .1-7.2 3.4-7.1 3.3-.6 14.2c-.3 7.7-1 80.5-1.6 161.6-1.6 228.3-2.9 400.5-3.6 468.7l-.6 62.3h-54.6l-.6-42.3c-.3-23.2-1.1-176.3-1.7-340.2-1.3-320.4-1.4-309.4 3.8-327.5 7.2-25.2 25.8-47.3 46.6-55.2 14.1-5.4-9.6-5.1 380.7-5.7 661.1-1.2 776.3-1.2 784.7 0zM1438 315v37h-2.7c-27.5.4-88.7 3.2-96.2 4.5-16.8 2.8-29.7 8.1-42.6 17.4-10.8 7.8-12 9-17.9 18.4-5.8 9.3-9.5 18-12.2 28.7-2.4 9.3-2.4 21.6-3.3 415.5l-.7 347-2.7 7.8c-3.1 8.8-5.5 12.9-12.5 21.4l-5 6-11.2 1.3c-8.8.9-13.3.9-21.6-.1l-10.5-1.2-5-5.5c-6.1-6.7-10.2-13.6-13.2-22.2l-2.2-6.5-.5-379.5c-.5-360.1-.6-379.8-2.3-385.5-1-3.3-4.9-12.4-8.8-20.1-7.5-15.2-9.2-17.1-22.5-26.2-14.9-10.1-29-14.7-51.2-16.4-12.8-1-15.2-.9-22 .6-10.5 2.5-22.1 8.1-31.7 15.4-11.8 8.9-12.9 10-18 18-8.6 13.5-12.6 24.3-14.4 39.2-.8 5.7-1.1 87.7-1.2 250.5-.1 133.1-.5 302.3-.8 376l-.6 134-2.3 5.7c-3.3 8.1-9.7 16.3-17.9 23.1l-7.1 5.8-10.9-1c-5.9-.5-14.1-2-18.2-3.3-7.3-2.3-7.5-2.4-11.4-8.8-2.2-3.6-5.1-9.4-6.5-13l-2.6-6.5-.8-148c-.4-81.4-1.2-247.5-1.7-369-.7-146.7-1.3-223.4-2-228.1-3.2-21-10.2-38.8-21.1-53.2-11.2-14.9-33.8-28.6-56.6-34.4-7.8-2-11.4-2.3-29.9-2.3h-21l-7.6 4.2c-18.9 10.6-35.7 25.1-45.7 39.6-6.5 9.4-13.9 24.7-15.1 31.3-.6 2.9-1.4 160.4-2.1 378.4-1.1 369.7-1.2 373.6-3.1 380.5-3.5 11.8-9.7 20.5-21.4 29.5l-5.3 4.1-10.4-.9c-5.7-.6-13.8-2-18-3.3l-7.8-2.2-4.6-7.9c-2.6-4.3-5.6-10.7-6.7-14.1-2.1-6.2-2.1-6.8-2.8-292.7-1.2-421.2-1.4-457.3-2.8-465.9-3.5-20.9-9.9-37.5-20.5-53.5-4.8-7.2-6.3-8.6-13.6-13-16.8-10-31.6-14.3-52.5-15.3-10.4-.5-13.1-.3-19.9 1.6-15.5 4.3-30.1 13.5-46.3 29.2-5.8 5.6-7.7 8.4-10.1 14.2-6.4 15.4-6.3 13.9-7.2 108.2-1.4 140.2-3 354.2-3 394.7V942H363V610.7c0-182.3.3-331.7.7-332 .3-.4 242.2-.7 537.5-.7H1438v37zm-602.8 88.6c12.5 4.4 19.6 9 29 18.5 7 7.1 8.8 9.6 9.9 13.6 1.1 3.9 1.4 74.9 1.9 371.3.6 333.9.8 367.3 2.3 375.7 3.9 22 9.8 39 19.6 56.3 5 8.8 6.9 11.2 11.8 14.9 12.4 9.2 23.6 13.4 40.5 15.2 24.8 2.6 45.1-3.3 70.9-20.7 7.5-5 10.7-7.9 13.4-12 7.4-11.1 12.8-25.2 16.1-42.4 2.1-10.4 2.2-23.7 3.3-455 .8-349.4-.2-314.2 9.4-324.6 11.2-12.3 26.1-15.7 41.7-9.4 13.3 5.4 25 16.4 27.1 25.6.8 3.5 1.4 110.5 1.9 372.4.6 258.4 1.2 371.4 2 380.7 1.8 21.4 6.6 37.5 15.3 52.1 4.6 7.7 9.2 12.1 20.7 19.7 15.4 10.3 27.4 13.8 47.5 13.8 16.2.1 24.5-1.7 38.3-8.3 10.9-5.2 16-8.8 26.1-18.5 8.9-8.5 12.9-15.1 17-27.5 5.5-16.7 5.2 8 5.1-398.2-.1-342.5.1-375.3 1.5-381 2.3-8.6 4.3-11.6 16.4-24.1l10.4-10.7H1438v947l-537.2-.2-537.3-.3-.3-125.7-.2-125.8 2.2-.4c1.3-.3 21.9-1.7 45.8-3.1l43.5-2.7 15-7.4c22.2-10.9 27.2-16 37-38.3 4.1-9.4 4.4-10.8 5.4-23.8.7-9.3 1.1-76 1.2-199.9.1-102.2.4-230.9.8-285.9l.7-100 2.2-5.6c3.9-9.7 10.9-18.9 17.7-22.9 5.5-3.3 6.6-3.5 15.7-3.8 15.2-.6 26.5 3.7 36.3 13.8l5 5.1.7 159.7c.5 87.8 1.2 257.6 1.7 377.2 1 237 .7 224.4 6.6 245.5 5.2 18.3 19.8 42.2 31.1 50.8 6.5 5 15.6 9.3 25.1 11.9 6.6 1.8 10.6 2.1 26.8 2.2 16.6 0 20-.3 26.9-2.2 10.1-2.8 17.2-6.1 26.6-12.2 7.1-4.7 7.8-5.5 13.2-15.2 10.5-18.8 17.1-40.1 20-63.8.9-8.3 1.2-84.7 1-362.5-.2-238.6 0-355.1.7-361.7 1.3-12.1 3.7-18.4 11-29.5 5.7-8.8 8.8-11.6 18-16.2 9.3-4.8 23.3-5.4 34.3-1.5zM447 991.3c6.3 2.5 13 7.6 16.5 12.6 2.3 3.4 3 5.7 3.3 10.8.4 5.8.1 7.1-3.1 13.6-2.3 4.7-5.7 9.3-9.7 13.2l-6.1 6-153.2.9c-162.3.9-163.2.9-172.2-3.6-11.8-6-16.5-13.1-16.5-25.1 0-6.6.4-8.6 3-13.6 3.2-6.5 9-12 14.7-14.1 4.2-1.6 110.6-2.6 248.8-2.5 64.4 0 70.4.2 74.5 1.8zM178.1 1200H210v48.8l-9.2.7c-5.1.3-22.8.7-39.3.8-33.4.1-35.9-.2-45.2-6.3-11.9-7.8-13.7-21.7-4.6-36.2 1.3-2.1 3.5-4.5 4.9-5.4 2.8-1.9 17.6-3.5 25.3-2.8 2.4.2 18.7.4 36.2.4z"/>
</svg>
