<?xml version="1.0" standalone="no"?>
<!DOCTYPE svg PUBLIC "-//W3C//DTD SVG 20010904//EN"
 "http://www.w3.org/TR/2001/REC-SVG-20010904/DTD/svg10.dtd">
<svg version="1.0" xmlns="http://www.w3.org/2000/svg"
 width="340.000000pt" height="340.000000pt" viewBox="0 0 340.000000 340.000000"
 preserveAspectRatio="xMidYMid meet">

<g transform="translate(0.000000,340.000000) scale(0.100000,-0.100000)"
fill="#000000" stroke="none">
<path d="M1534 3252 c-50 -43 -391 -329 -758 -636 l-666 -560 0 -988 0 -988
1618 2 1617 3 3 986 c2 881 0 987 -13 993 -9 3 -387 285 -841 627 -455 342
-831 622 -838 623 -6 1 -16 4 -21 8 -6 3 -51 -28 -101 -70z m893 -698 l772
-579 0 -867 1 -868 -1470 0 -1470 0 0 873 0 873 568 477 c313 262 586 492 608
510 104 91 200 166 209 163 6 -1 357 -263 782 -582z"/>
</g>
</svg>
