<svg xmlns="http://www.w3.org/2000/svg" viewBox="0 0 100 100">
  <path d="M36.248 79.098v-8.783a2.422 2.422 0 0 1 2.423-2.422h1.17V53.177h-1.384a2.425 2.425 0 0 1-2.424-2.425V41.41a2.424 2.424 0 0 1 2.424-2.423H55.69c1.642 0 2.88.695 3.715 2.081.598.994.898 2.319.898 3.972v22.853h1.242a2.423 2.423 0 0 1 2.424 2.422v8.783a2.425 2.425 0 0 1-2.424 2.425H38.67a2.424 2.424 0 0 1-2.423-2.425zM50 4.847a46.23 46.23 0 0 0-9.09.881 43.099 43.099 0 0 0-8.494 2.628l.001.003a47.6 47.6 0 0 0-7.743 4.189 43.77 43.77 0 0 0-6.645 5.472l-.01.009a43.867 43.867 0 0 0-5.471 6.644 47.635 47.635 0 0 0-4.19 7.744 2.96 2.96 0 0 1-.052.115 43.091 43.091 0 0 0-2.578 8.378 46.232 46.232 0 0 0-.88 9.09c0 3.126.293 6.155.88 9.09a43.146 43.146 0 0 0 2.628 8.494h.003a47.723 47.723 0 0 0 4.189 7.743 43.777 43.777 0 0 0 5.471 6.645l.01.01v-.002a43.775 43.775 0 0 0 6.644 5.473 47.507 47.507 0 0 0 7.743 4.188c.04.017.078.035.115.054a43.267 43.267 0 0 0 8.379 2.578 46.29 46.29 0 0 0 9.09.88 46.24 46.24 0 0 0 9.088-.88 43.146 43.146 0 0 0 8.495-2.628l-.002-.005a47.606 47.606 0 0 0 7.744-4.188 43.77 43.77 0 0 0 6.644-5.472l.01-.009a43.816 43.816 0 0 0 5.472-6.645 47.598 47.598 0 0 0 4.188-7.743l.053-.116a43.147 43.147 0 0 0 2.578-8.378c.588-2.934.882-5.963.882-9.09a46.17 46.17 0 0 0-.882-9.088 43.129 43.129 0 0 0-2.627-8.495h-.004a47.663 47.663 0 0 0-4.188-7.742 43.77 43.77 0 0 0-5.472-6.645l-.009-.01a43.852 43.852 0 0 0-6.645-5.472 47.547 47.547 0 0 0-7.744-4.188 3.753 3.753 0 0 1-.115-.053 43.155 43.155 0 0 0-8.378-2.578A46.267 46.267 0 0 0 50 4.847zM39.964.976A51.024 51.024 0 0 1 50 0c3.44 0 6.787.326 10.036.976 3.196.64 6.305 1.6 9.327 2.881l.132.052a52.433 52.433 0 0 1 8.52 4.625 48.705 48.705 0 0 1 7.378 6.073 48.712 48.712 0 0 1 6.072 7.378 52.42 52.42 0 0 1 4.625 8.52h-.004l.004.01a47.92 47.92 0 0 1 2.934 9.449c.65 3.249.975 6.595.975 10.036s-.325 6.788-.975 10.035a47.938 47.938 0 0 1-2.882 9.327 3.009 3.009 0 0 1-.052.134 52.467 52.467 0 0 1-4.625 8.52 48.745 48.745 0 0 1-6.072 7.377 48.74 48.74 0 0 1-7.378 6.072 52.465 52.465 0 0 1-8.52 4.626l-.001-.004-.01.004a47.984 47.984 0 0 1-9.448 2.933c-3.249.65-6.595.976-10.036.976-3.44 0-6.787-.326-10.036-.976a47.994 47.994 0 0 1-9.327-2.881 2.63 2.63 0 0 1-.132-.052 52.37 52.37 0 0 1-8.52-4.626 48.7 48.7 0 0 1-7.378-6.072 48.785 48.785 0 0 1-6.072-7.378 52.495 52.495 0 0 1-4.625-8.52h.003l-.003-.01a47.89 47.89 0 0 1-2.934-9.45A51.02 51.02 0 0 1 0 50c0-3.44.326-6.787.976-10.036a47.88 47.88 0 0 1 2.882-9.326c.016-.045.033-.089.052-.134a52.357 52.357 0 0 1 4.625-8.518 48.711 48.711 0 0 1 6.072-7.379 48.705 48.705 0 0 1 7.378-6.073 52.427 52.427 0 0 1 8.52-4.624l.001.003.008-.003a47.934 47.934 0 0 1 9.45-2.933zm1.13 71.719v3.98H59.12v-3.98a3.603 3.603 0 0 1-1.175-.419 5.14 5.14 0 0 1-1.149-.877 5.091 5.091 0 0 1-.88-1.164c-.305-.558-.46-1.127-.46-1.704v-23.49c0-.537-.033-.939-.098-1.207H40.881v4.511c.487.048.96.204 1.418.467l-.004.008.004.002c.344.199.677.459.996.781.053.05.106.1.156.155.346.378.62.755.814 1.13.28.539.424 1.09.424 1.65v15.994c0 .504-.114.999-.337 1.483a2.196 2.196 0 0 1-.088.189 5.1 5.1 0 0 1-.831 1.137 4.894 4.894 0 0 1-1.14.916c-.392.223-.79.37-1.198.438zm8.942-36.441c-1.327 0-2.556-.2-3.69-.598a9.083 9.083 0 0 1-3.127-1.869 2.138 2.138 0 0 1-.123-.12 8.213 8.213 0 0 1-2-2.854c-.464-1.111-.695-2.328-.695-3.646 0-1.315.23-2.538.696-3.663a8.376 8.376 0 0 1 2.122-3.018l.048-.043a9.074 9.074 0 0 1 3.07-1.842c1.145-.413 2.378-.618 3.699-.618 1.352 0 2.6.203 3.742.608a9.05 9.05 0 0 1 3.145 1.895 8.388 8.388 0 0 1 2.123 3.017c.465 1.125.695 2.348.695 3.663 0 1.32-.23 2.536-.695 3.647a8.226 8.226 0 0 1-2.126 2.97l.004.004a9.042 9.042 0 0 1-3.155 1.869c-1.149.4-2.392.598-3.733.598zm-2.08-5.161c.595.21 1.289.315 2.08.315.826 0 1.54-.105 2.143-.315a4.263 4.263 0 0 0 1.489-.883l.004.004.015-.014a3.44 3.44 0 0 0 .893-1.242c.212-.506.317-1.103.317-1.791 0-.704-.105-1.314-.318-1.827a3.556 3.556 0 0 0-.91-1.275l.001-.001-.02-.018a4.217 4.217 0 0 0-1.479-.891c-.609-.217-1.32-.324-2.133-.324-.796 0-1.487.105-2.07.315a4.254 4.254 0 0 0-1.49.92 3.566 3.566 0 0 0-.91 1.275c-.212.512-.318 1.123-.318 1.826 0 .687.105 1.285.316 1.79.182.434.447.819.798 1.155.038.031.076.064.113.097.43.393.924.688 1.48.884z"/>
</svg>
